<?xml version="1.0" standalone="no"?>
<!DOCTYPE svg PUBLIC "-//W3C//DTD SVG 20010904//EN"
 "http://www.w3.org/TR/2001/REC-SVG-20010904/DTD/svg10.dtd">
<svg version="1.0" xmlns="http://www.w3.org/2000/svg"
 width="225.000000pt" height="225.000000pt" viewBox="0 0 225.000000 225.000000"
 preserveAspectRatio="xMidYMid meet">
<metadata>
Created by potrace 1.11, written by Peter Selinger 2001-2013
</metadata>
<g transform="translate(0.000000,225.000000) scale(0.100000,-0.100000)"
fill="#000000" stroke="none">
<path d="M2065 1110 c0 -289 1 -407 2 -262 2 144 2 380 0 525 -1 144 -2 26 -2
-263z"/>
<path d="M950 1555 l0 -64 -37 -6 c-60 -10 -183 -54 -243 -88 -52 -29 -158
-105 -224 -160 l-30 -24 21 -50 c83 -199 259 -363 433 -403 30 -7 61 -14 68
-16 8 -2 12 -23 12 -59 l0 -55 440 0 440 0 0 495 0 495 -440 0 -440 0 0 -65z
m152 -86 c114 -24 302 -141 366 -228 l23 -32 -21 -29 c-32 -45 -138 -138 -213
-187 -99 -65 -181 -89 -279 -84 -23 1 -28 6 -28 29 0 27 1 27 63 27 45 0 75 7
111 25 51 25 155 116 206 180 l30 37 -59 59 c-96 96 -216 154 -318 154 -30 0
-33 3 -33 30 0 29 1 30 50 30 27 0 73 -5 102 -11z m-152 -98 c0 -39 -11 -51
-48 -51 -47 0 -232 -113 -232 -141 0 -26 55 -123 95 -167 39 -43 113 -90 168
-106 12 -4 17 -16 17 -42 0 -36 -1 -36 -32 -30 -115 22 -236 129 -307 268
l-44 86 21 29 c50 70 181 154 277 177 86 21 85 21 85 -23z m165 -79 c22 -11
56 -35 75 -53 l34 -32 -54 -48 c-30 -27 -57 -49 -60 -49 -3 0 -18 23 -35 51
-31 52 -56 74 -99 85 -22 5 -26 12 -26 41 l0 36 63 -5 c34 -3 80 -15 102 -26z
m-165 -182 l0 -131 -29 15 c-37 20 -89 80 -112 130 -18 40 -18 41 3 63 27 29
77 52 111 53 l27 0 0 -130z m760 -119 c0 -12 -65 -53 -146 -94 -151 -76 -359
-134 -516 -144 l-98 -6 0 36 0 37 68 0 c156 0 304 67 491 222 l54 46 74 -45
c40 -24 73 -48 73 -52z"/>
<path d="M182 1190 c0 -19 2 -27 5 -17 2 9 2 25 0 35 -3 9 -5 1 -5 -18z"/>
</g>
</svg>
